<mxfile host="65bd71144e">
    <diagram id="Ilo7PbuDCf8OjHH3W8lC" name="Page-1">
        <mxGraphModel dx="1054" dy="862" grid="0" gridSize="10" guides="1" tooltips="1" connect="1" arrows="1" fold="1" page="1" pageScale="1" pageWidth="850" pageHeight="1100" background="#FFEDF6" math="0" shadow="0">
            <root>
                <mxCell id="0"/>
                <mxCell id="1" parent="0"/>
                <mxCell id="2" value="Utils" style="swimlane;fontStyle=0;align=center;verticalAlign=top;childLayout=stackLayout;horizontal=1;startSize=30;horizontalStack=0;resizeParent=1;resizeParentMax=0;resizeLast=0;collapsible=0;marginBottom=0;html=1;rounded=1;" parent="1" vertex="1">
                    <mxGeometry x="1447" y="2057" width="225" height="116" as="geometry"/>
                </mxCell>
                <mxCell id="3" style="line;strokeWidth=1;fillColor=none;align=left;verticalAlign=middle;spacingTop=-1;spacingLeft=3;spacingRight=3;rotatable=0;labelPosition=right;points=[];portConstraint=eastwest;rounded=1;" parent="2" vertex="1">
                    <mxGeometry y="30" width="225" height="8" as="geometry"/>
                </mxCell>
                <mxCell id="4" value="+ getImage(String): Image" style="text;html=1;strokeColor=none;fillColor=none;align=left;verticalAlign=middle;spacingLeft=4;spacingRight=4;overflow=hidden;rotatable=0;points=[[0,0.5],[1,0.5]];portConstraint=eastwest;fontStyle=4;rounded=1;" parent="2" vertex="1">
                    <mxGeometry y="38" width="225" height="26" as="geometry"/>
                </mxCell>
                <mxCell id="5" value="+ getValidAngle(double): double" style="text;html=1;strokeColor=none;fillColor=none;align=left;verticalAlign=middle;spacingLeft=4;spacingRight=4;overflow=hidden;rotatable=0;points=[[0,0.5],[1,0.5]];portConstraint=eastwest;fontStyle=4;rounded=1;" parent="2" vertex="1">
                    <mxGeometry y="64" width="225" height="26" as="geometry"/>
                </mxCell>
                <mxCell id="6" value="+ getAngle(double, double, double, double): double" style="text;html=1;strokeColor=none;fillColor=none;align=left;verticalAlign=middle;spacingLeft=4;spacingRight=4;overflow=hidden;rotatable=0;points=[[0,0.5],[1,0.5]];portConstraint=eastwest;fontStyle=4;rounded=1;" parent="2" vertex="1">
                    <mxGeometry y="90" width="225" height="26" as="geometry"/>
                </mxCell>
                <object label="Launch" Launch="" id="245">
                    <mxCell style="edgeStyle=none;html=1;exitX=0.5;exitY=0;exitDx=0;exitDy=0;strokeWidth=4;" parent="1" source="7" target="200" edge="1">
                        <mxGeometry relative="1" as="geometry"/>
                    </mxCell>
                </object>
                <mxCell id="7" value="App" style="swimlane;fontStyle=0;align=center;verticalAlign=top;childLayout=stackLayout;horizontal=1;startSize=30;horizontalStack=0;resizeParent=1;resizeParentMax=0;resizeLast=0;collapsible=0;marginBottom=0;html=1;rounded=1;" parent="1" vertex="1">
                    <mxGeometry x="889" y="1916" width="225" height="64" as="geometry"/>
                </mxCell>
                <mxCell id="8" style="line;strokeWidth=1;fillColor=none;align=left;verticalAlign=middle;spacingTop=-1;spacingLeft=3;spacingRight=3;rotatable=0;labelPosition=right;points=[];portConstraint=eastwest;rounded=1;" parent="7" vertex="1">
                    <mxGeometry y="30" width="225" height="8" as="geometry"/>
                </mxCell>
                <mxCell id="9" value="+ main(String[]): void" style="text;html=1;strokeColor=none;fillColor=none;align=left;verticalAlign=middle;spacingLeft=4;spacingRight=4;overflow=hidden;rotatable=0;points=[[0,0.5],[1,0.5]];portConstraint=eastwest;fontStyle=4;rounded=1;" parent="7" vertex="1">
                    <mxGeometry y="38" width="225" height="26" as="geometry"/>
                </mxCell>
                <mxCell id="10" value="SlitherIoGame" style="swimlane;fontStyle=0;align=center;verticalAlign=top;childLayout=stackLayout;horizontal=1;startSize=30;horizontalStack=0;resizeParent=1;resizeParentMax=0;resizeLast=0;collapsible=0;marginBottom=0;html=1;rounded=1;" parent="1" vertex="1">
                    <mxGeometry x="37" y="1203" width="225" height="64" as="geometry"/>
                </mxCell>
                <mxCell id="11" style="line;strokeWidth=1;fillColor=none;align=left;verticalAlign=middle;spacingTop=-1;spacingLeft=3;spacingRight=3;rotatable=0;labelPosition=right;points=[];portConstraint=eastwest;rounded=1;" parent="10" vertex="1">
                    <mxGeometry y="30" width="225" height="8" as="geometry"/>
                </mxCell>
                <mxCell id="12" value="+ SlitherIoGame(double, double, Player, Player)" style="text;html=1;strokeColor=none;fillColor=none;align=left;verticalAlign=middle;spacingLeft=4;spacingRight=4;overflow=hidden;rotatable=0;points=[[0,0.5],[1,0.5]];portConstraint=eastwest;rounded=1;" parent="10" vertex="1">
                    <mxGeometry y="38" width="225" height="26" as="geometry"/>
                </mxCell>
                <mxCell id="255" value="View" style="edgeStyle=orthogonalEdgeStyle;html=1;strokeWidth=4;elbow=vertical;fillColor=#60a917;strokeColor=#2D7600;" parent="1" source="13" target="165" edge="1">
                    <mxGeometry relative="1" as="geometry">
                        <mxPoint x="1304.2857142857147" y="973.2857142857142" as="targetPoint"/>
                        <mxPoint x="580" y="1173" as="sourcePoint"/>
                        <Array as="points">
                            <mxPoint x="370" y="1020"/>
                            <mxPoint x="1317" y="1020"/>
                        </Array>
                    </mxGeometry>
                </mxCell>
                <mxCell id="13" value="Arena" style="swimlane;fontStyle=0;align=center;verticalAlign=top;childLayout=stackLayout;horizontal=1;startSize=30;horizontalStack=0;resizeParent=1;resizeParentMax=0;resizeLast=0;collapsible=0;marginBottom=0;html=1;rounded=1;" parent="1" vertex="1">
                    <mxGeometry x="304" y="1140" width="225" height="792" as="geometry"/>
                </mxCell>
                <mxCell id="14" value="- players : ListProperty&lt;Player&gt;&amp;lt;Player&amp;gt;" style="text;html=1;strokeColor=none;fillColor=none;align=left;verticalAlign=middle;spacingLeft=4;spacingRight=4;overflow=hidden;rotatable=0;points=[[0,0.5],[1,0.5]];portConstraint=eastwest;rounded=1;" parent="13" vertex="1">
                    <mxGeometry y="30" width="225" height="26" as="geometry"/>
                </mxCell>
                <mxCell id="15" value="- foods : ListProperty&lt;Food&gt;&amp;lt;Food&amp;gt;" style="text;html=1;strokeColor=none;fillColor=none;align=left;verticalAlign=middle;spacingLeft=4;spacingRight=4;overflow=hidden;rotatable=0;points=[[0,0.5],[1,0.5]];portConstraint=eastwest;rounded=1;" parent="13" vertex="1">
                    <mxGeometry y="56" width="225" height="26" as="geometry"/>
                </mxCell>
                <mxCell id="16" value="- snakes : ListProperty&lt;Snake&gt;&amp;lt;Snake&amp;gt;" style="text;html=1;strokeColor=none;fillColor=none;align=left;verticalAlign=middle;spacingLeft=4;spacingRight=4;overflow=hidden;rotatable=0;points=[[0,0.5],[1,0.5]];portConstraint=eastwest;rounded=1;" parent="13" vertex="1">
                    <mxGeometry y="82" width="225" height="26" as="geometry"/>
                </mxCell>
                <mxCell id="17" value="- worldWidth : double" style="text;html=1;strokeColor=none;fillColor=none;align=left;verticalAlign=middle;spacingLeft=4;spacingRight=4;overflow=hidden;rotatable=0;points=[[0,0.5],[1,0.5]];portConstraint=eastwest;rounded=1;" parent="13" vertex="1">
                    <mxGeometry y="108" width="225" height="26" as="geometry"/>
                </mxCell>
                <mxCell id="18" value="- worldHeight : double" style="text;html=1;strokeColor=none;fillColor=none;align=left;verticalAlign=middle;spacingLeft=4;spacingRight=4;overflow=hidden;rotatable=0;points=[[0,0.5],[1,0.5]];portConstraint=eastwest;rounded=1;" parent="13" vertex="1">
                    <mxGeometry y="134" width="225" height="26" as="geometry"/>
                </mxCell>
                <mxCell id="19" value="- width : double" style="text;html=1;strokeColor=none;fillColor=none;align=left;verticalAlign=middle;spacingLeft=4;spacingRight=4;overflow=hidden;rotatable=0;points=[[0,0.5],[1,0.5]];portConstraint=eastwest;rounded=1;" parent="13" vertex="1">
                    <mxGeometry y="160" width="225" height="26" as="geometry"/>
                </mxCell>
                <mxCell id="20" value="- height : double" style="text;html=1;strokeColor=none;fillColor=none;align=left;verticalAlign=middle;spacingLeft=4;spacingRight=4;overflow=hidden;rotatable=0;points=[[0,0.5],[1,0.5]];portConstraint=eastwest;rounded=1;" parent="13" vertex="1">
                    <mxGeometry y="186" width="225" height="26" as="geometry"/>
                </mxCell>
                <mxCell id="21" style="line;strokeWidth=1;fillColor=none;align=left;verticalAlign=middle;spacingTop=-1;spacingLeft=3;spacingRight=3;rotatable=0;labelPosition=right;points=[];portConstraint=eastwest;rounded=1;" parent="13" vertex="1">
                    <mxGeometry y="212" width="225" height="8" as="geometry"/>
                </mxCell>
                <mxCell id="22" value="+ Arena(double, double, double, double)" style="text;html=1;strokeColor=none;fillColor=none;align=left;verticalAlign=middle;spacingLeft=4;spacingRight=4;overflow=hidden;rotatable=0;points=[[0,0.5],[1,0.5]];portConstraint=eastwest;rounded=1;" parent="13" vertex="1">
                    <mxGeometry y="220" width="225" height="26" as="geometry"/>
                </mxCell>
                <mxCell id="23" value="+ bindPlayers(): void" style="text;html=1;strokeColor=none;fillColor=none;align=left;verticalAlign=middle;spacingLeft=4;spacingRight=4;overflow=hidden;rotatable=0;points=[[0,0.5],[1,0.5]];portConstraint=eastwest;rounded=1;" parent="13" vertex="1">
                    <mxGeometry y="246" width="225" height="26" as="geometry"/>
                </mxCell>
                <mxCell id="24" value="# isValidFoodPosition(Food): boolean" style="text;html=1;strokeColor=none;fillColor=none;align=left;verticalAlign=middle;spacingLeft=4;spacingRight=4;overflow=hidden;rotatable=0;points=[[0,0.5],[1,0.5]];portConstraint=eastwest;rounded=1;" parent="13" vertex="1">
                    <mxGeometry y="272" width="225" height="26" as="geometry"/>
                </mxCell>
                <mxCell id="25" value="# getValidRandomFood(): Food" style="text;html=1;strokeColor=none;fillColor=none;align=left;verticalAlign=middle;spacingLeft=4;spacingRight=4;overflow=hidden;rotatable=0;points=[[0,0.5],[1,0.5]];portConstraint=eastwest;rounded=1;" parent="13" vertex="1">
                    <mxGeometry y="298" width="225" height="26" as="geometry"/>
                </mxCell>
                <mxCell id="26" value="+ update(double): void" style="text;html=1;strokeColor=none;fillColor=none;align=left;verticalAlign=middle;spacingLeft=4;spacingRight=4;overflow=hidden;rotatable=0;points=[[0,0.5],[1,0.5]];portConstraint=eastwest;rounded=1;" parent="13" vertex="1">
                    <mxGeometry y="324" width="225" height="26" as="geometry"/>
                </mxCell>
                <mxCell id="27" value="+ onKeyPressed(KeyCode): void" style="text;html=1;strokeColor=none;fillColor=none;align=left;verticalAlign=middle;spacingLeft=4;spacingRight=4;overflow=hidden;rotatable=0;points=[[0,0.5],[1,0.5]];portConstraint=eastwest;rounded=1;" parent="13" vertex="1">
                    <mxGeometry y="350" width="225" height="26" as="geometry"/>
                </mxCell>
                <mxCell id="28" value="+ onMouseMoved(double, double): void" style="text;html=1;strokeColor=none;fillColor=none;align=left;verticalAlign=middle;spacingLeft=4;spacingRight=4;overflow=hidden;rotatable=0;points=[[0,0.5],[1,0.5]];portConstraint=eastwest;rounded=1;" parent="13" vertex="1">
                    <mxGeometry y="376" width="225" height="26" as="geometry"/>
                </mxCell>
                <mxCell id="29" value="+ endGame(): boolean" style="text;html=1;strokeColor=none;fillColor=none;align=left;verticalAlign=middle;spacingLeft=4;spacingRight=4;overflow=hidden;rotatable=0;points=[[0,0.5],[1,0.5]];portConstraint=eastwest;rounded=1;" parent="13" vertex="1">
                    <mxGeometry y="402" width="225" height="26" as="geometry"/>
                </mxCell>
                <mxCell id="30" value="+ getPlayersProperty(): ListProperty&lt;Player&gt;&amp;lt;Player&amp;gt;" style="text;html=1;strokeColor=none;fillColor=none;align=left;verticalAlign=middle;spacingLeft=4;spacingRight=4;overflow=hidden;rotatable=0;points=[[0,0.5],[1,0.5]];portConstraint=eastwest;rounded=1;" parent="13" vertex="1">
                    <mxGeometry y="428" width="225" height="26" as="geometry"/>
                </mxCell>
                <mxCell id="31" value="+ getPlayers(): ObservableList&lt;Player&gt;&amp;lt;Player&amp;gt;" style="text;html=1;strokeColor=none;fillColor=none;align=left;verticalAlign=middle;spacingLeft=4;spacingRight=4;overflow=hidden;rotatable=0;points=[[0,0.5],[1,0.5]];portConstraint=eastwest;rounded=1;" parent="13" vertex="1">
                    <mxGeometry y="454" width="225" height="26" as="geometry"/>
                </mxCell>
                <mxCell id="32" value="+ getFoodsProperty(): ListProperty&lt;Food&gt;&amp;lt;Food&amp;gt;" style="text;html=1;strokeColor=none;fillColor=none;align=left;verticalAlign=middle;spacingLeft=4;spacingRight=4;overflow=hidden;rotatable=0;points=[[0,0.5],[1,0.5]];portConstraint=eastwest;rounded=1;" parent="13" vertex="1">
                    <mxGeometry y="480" width="225" height="26" as="geometry"/>
                </mxCell>
                <mxCell id="33" value="+ getFoods(): ObservableList&lt;Food&gt;&amp;lt;Food&amp;gt;" style="text;html=1;strokeColor=none;fillColor=none;align=left;verticalAlign=middle;spacingLeft=4;spacingRight=4;overflow=hidden;rotatable=0;points=[[0,0.5],[1,0.5]];portConstraint=eastwest;rounded=1;" parent="13" vertex="1">
                    <mxGeometry y="506" width="225" height="26" as="geometry"/>
                </mxCell>
                <mxCell id="34" value="+ getSnakesProperty(): ListProperty&lt;Snake&gt;&amp;lt;Snake&amp;gt;" style="text;html=1;strokeColor=none;fillColor=none;align=left;verticalAlign=middle;spacingLeft=4;spacingRight=4;overflow=hidden;rotatable=0;points=[[0,0.5],[1,0.5]];portConstraint=eastwest;rounded=1;" parent="13" vertex="1">
                    <mxGeometry y="532" width="225" height="26" as="geometry"/>
                </mxCell>
                <mxCell id="35" value="+ getSnakes(): ObservableList&lt;Snake&gt;&amp;lt;Snake&amp;gt;" style="text;html=1;strokeColor=none;fillColor=none;align=left;verticalAlign=middle;spacingLeft=4;spacingRight=4;overflow=hidden;rotatable=0;points=[[0,0.5],[1,0.5]];portConstraint=eastwest;rounded=1;" parent="13" vertex="1">
                    <mxGeometry y="558" width="225" height="26" as="geometry"/>
                </mxCell>
                <mxCell id="36" value="+ getWidth(): double" style="text;html=1;strokeColor=none;fillColor=none;align=left;verticalAlign=middle;spacingLeft=4;spacingRight=4;overflow=hidden;rotatable=0;points=[[0,0.5],[1,0.5]];portConstraint=eastwest;rounded=1;" parent="13" vertex="1">
                    <mxGeometry y="584" width="225" height="26" as="geometry"/>
                </mxCell>
                <mxCell id="37" value="+ setWidth(double): void" style="text;html=1;strokeColor=none;fillColor=none;align=left;verticalAlign=middle;spacingLeft=4;spacingRight=4;overflow=hidden;rotatable=0;points=[[0,0.5],[1,0.5]];portConstraint=eastwest;rounded=1;" parent="13" vertex="1">
                    <mxGeometry y="610" width="225" height="26" as="geometry"/>
                </mxCell>
                <mxCell id="38" value="+ getHeight(): double" style="text;html=1;strokeColor=none;fillColor=none;align=left;verticalAlign=middle;spacingLeft=4;spacingRight=4;overflow=hidden;rotatable=0;points=[[0,0.5],[1,0.5]];portConstraint=eastwest;rounded=1;" parent="13" vertex="1">
                    <mxGeometry y="636" width="225" height="26" as="geometry"/>
                </mxCell>
                <mxCell id="39" value="+ setHeight(double): void" style="text;html=1;strokeColor=none;fillColor=none;align=left;verticalAlign=middle;spacingLeft=4;spacingRight=4;overflow=hidden;rotatable=0;points=[[0,0.5],[1,0.5]];portConstraint=eastwest;rounded=1;" parent="13" vertex="1">
                    <mxGeometry y="662" width="225" height="26" as="geometry"/>
                </mxCell>
                <mxCell id="40" value="+ getWorldtWidth(): double" style="text;html=1;strokeColor=none;fillColor=none;align=left;verticalAlign=middle;spacingLeft=4;spacingRight=4;overflow=hidden;rotatable=0;points=[[0,0.5],[1,0.5]];portConstraint=eastwest;rounded=1;" parent="13" vertex="1">
                    <mxGeometry y="688" width="225" height="26" as="geometry"/>
                </mxCell>
                <mxCell id="41" value="+ setWorldWidth(double): void" style="text;html=1;strokeColor=none;fillColor=none;align=left;verticalAlign=middle;spacingLeft=4;spacingRight=4;overflow=hidden;rotatable=0;points=[[0,0.5],[1,0.5]];portConstraint=eastwest;rounded=1;" parent="13" vertex="1">
                    <mxGeometry y="714" width="225" height="26" as="geometry"/>
                </mxCell>
                <mxCell id="42" value="+ getWorldHeight(): double" style="text;html=1;strokeColor=none;fillColor=none;align=left;verticalAlign=middle;spacingLeft=4;spacingRight=4;overflow=hidden;rotatable=0;points=[[0,0.5],[1,0.5]];portConstraint=eastwest;rounded=1;" parent="13" vertex="1">
                    <mxGeometry y="740" width="225" height="26" as="geometry"/>
                </mxCell>
                <mxCell id="43" value="+ setWorldHeight(double): void" style="text;html=1;strokeColor=none;fillColor=none;align=left;verticalAlign=middle;spacingLeft=4;spacingRight=4;overflow=hidden;rotatable=0;points=[[0,0.5],[1,0.5]];portConstraint=eastwest;rounded=1;" parent="13" vertex="1">
                    <mxGeometry y="766" width="225" height="26" as="geometry"/>
                </mxCell>
                <mxCell id="44" value="SnakeGame" style="swimlane;fontStyle=0;align=center;verticalAlign=top;childLayout=stackLayout;horizontal=1;startSize=30;horizontalStack=0;resizeParent=1;resizeParentMax=0;resizeLast=0;collapsible=0;marginBottom=0;html=1;rounded=1;" parent="1" vertex="1">
                    <mxGeometry x="604" y="1501" width="225" height="64" as="geometry"/>
                </mxCell>
                <mxCell id="45" style="line;strokeWidth=1;fillColor=none;align=left;verticalAlign=middle;spacingTop=-1;spacingLeft=3;spacingRight=3;rotatable=0;labelPosition=right;points=[];portConstraint=eastwest;rounded=1;" parent="44" vertex="1">
                    <mxGeometry y="30" width="225" height="8" as="geometry"/>
                </mxCell>
                <mxCell id="46" value="+ SnakeGame(double, double, Player)" style="text;html=1;strokeColor=none;fillColor=none;align=left;verticalAlign=middle;spacingLeft=4;spacingRight=4;overflow=hidden;rotatable=0;points=[[0,0.5],[1,0.5]];portConstraint=eastwest;rounded=1;" parent="44" vertex="1">
                    <mxGeometry y="38" width="225" height="26" as="geometry"/>
                </mxCell>
                <mxCell id="47" value="Player" style="swimlane;fontStyle=0;align=center;verticalAlign=top;childLayout=stackLayout;horizontal=1;startSize=30;horizontalStack=0;resizeParent=1;resizeParentMax=0;resizeLast=0;collapsible=0;marginBottom=0;html=1;rounded=1;" parent="1" vertex="1">
                    <mxGeometry x="1427" y="1140" width="225" height="766" as="geometry"/>
                </mxCell>
                <mxCell id="48" value="- id : int" style="text;html=1;strokeColor=none;fillColor=none;align=left;verticalAlign=middle;spacingLeft=4;spacingRight=4;overflow=hidden;rotatable=0;points=[[0,0.5],[1,0.5]];portConstraint=eastwest;rounded=1;" parent="47" vertex="1">
                    <mxGeometry y="30" width="225" height="26" as="geometry"/>
                </mxCell>
                <mxCell id="49" value="- name : String" style="text;html=1;strokeColor=none;fillColor=none;align=left;verticalAlign=middle;spacingLeft=4;spacingRight=4;overflow=hidden;rotatable=0;points=[[0,0.5],[1,0.5]];portConstraint=eastwest;rounded=1;" parent="47" vertex="1">
                    <mxGeometry y="56" width="225" height="26" as="geometry"/>
                </mxCell>
                <mxCell id="50" value="- skin : String" style="text;html=1;strokeColor=none;fillColor=none;align=left;verticalAlign=middle;spacingLeft=4;spacingRight=4;overflow=hidden;rotatable=0;points=[[0,0.5],[1,0.5]];portConstraint=eastwest;rounded=1;" parent="47" vertex="1">
                    <mxGeometry y="82" width="225" height="26" as="geometry"/>
                </mxCell>
                <mxCell id="51" value="- snake : Snake" style="text;html=1;strokeColor=none;fillColor=none;align=left;verticalAlign=middle;spacingLeft=4;spacingRight=4;overflow=hidden;rotatable=0;points=[[0,0.5],[1,0.5]];portConstraint=eastwest;rounded=1;" parent="47" vertex="1">
                    <mxGeometry y="108" width="225" height="26" as="geometry"/>
                </mxCell>
                <mxCell id="52" value="- isIa : boolean" style="text;html=1;strokeColor=none;fillColor=none;align=left;verticalAlign=middle;spacingLeft=4;spacingRight=4;overflow=hidden;rotatable=0;points=[[0,0.5],[1,0.5]];portConstraint=eastwest;rounded=1;" parent="47" vertex="1">
                    <mxGeometry y="134" width="225" height="26" as="geometry"/>
                </mxCell>
                <mxCell id="53" value="- mouseControl : boolean" style="text;html=1;strokeColor=none;fillColor=none;align=left;verticalAlign=middle;spacingLeft=4;spacingRight=4;overflow=hidden;rotatable=0;points=[[0,0.5],[1,0.5]];portConstraint=eastwest;rounded=1;" parent="47" vertex="1">
                    <mxGeometry y="160" width="225" height="26" as="geometry"/>
                </mxCell>
                <mxCell id="54" value="- keyUp : KeyCode" style="text;html=1;strokeColor=none;fillColor=none;align=left;verticalAlign=middle;spacingLeft=4;spacingRight=4;overflow=hidden;rotatable=0;points=[[0,0.5],[1,0.5]];portConstraint=eastwest;rounded=1;" parent="47" vertex="1">
                    <mxGeometry y="186" width="225" height="26" as="geometry"/>
                </mxCell>
                <mxCell id="55" value="- keyDown : KeyCode" style="text;html=1;strokeColor=none;fillColor=none;align=left;verticalAlign=middle;spacingLeft=4;spacingRight=4;overflow=hidden;rotatable=0;points=[[0,0.5],[1,0.5]];portConstraint=eastwest;rounded=1;" parent="47" vertex="1">
                    <mxGeometry y="212" width="225" height="26" as="geometry"/>
                </mxCell>
                <mxCell id="56" value="- keyLeft : KeyCode" style="text;html=1;strokeColor=none;fillColor=none;align=left;verticalAlign=middle;spacingLeft=4;spacingRight=4;overflow=hidden;rotatable=0;points=[[0,0.5],[1,0.5]];portConstraint=eastwest;rounded=1;" parent="47" vertex="1">
                    <mxGeometry y="238" width="225" height="26" as="geometry"/>
                </mxCell>
                <mxCell id="57" value="- keyRight : KeyCode" style="text;html=1;strokeColor=none;fillColor=none;align=left;verticalAlign=middle;spacingLeft=4;spacingRight=4;overflow=hidden;rotatable=0;points=[[0,0.5],[1,0.5]];portConstraint=eastwest;rounded=1;" parent="47" vertex="1">
                    <mxGeometry y="264" width="225" height="26" as="geometry"/>
                </mxCell>
                <mxCell id="58" style="line;strokeWidth=1;fillColor=none;align=left;verticalAlign=middle;spacingTop=-1;spacingLeft=3;spacingRight=3;rotatable=0;labelPosition=right;points=[];portConstraint=eastwest;rounded=1;" parent="47" vertex="1">
                    <mxGeometry y="290" width="225" height="8" as="geometry"/>
                </mxCell>
                <mxCell id="59" value="+ Player(int, String, String, boolean, double, double, KeyCode, KeyCode, KeyCode, KeyCode)" style="text;html=1;strokeColor=none;fillColor=none;align=left;verticalAlign=middle;spacingLeft=4;spacingRight=4;overflow=hidden;rotatable=0;points=[[0,0.5],[1,0.5]];portConstraint=eastwest;rounded=1;" parent="47" vertex="1">
                    <mxGeometry y="298" width="225" height="26" as="geometry"/>
                </mxCell>
                <mxCell id="60" value="+ Player(int, String, String, double, double)" style="text;html=1;strokeColor=none;fillColor=none;align=left;verticalAlign=middle;spacingLeft=4;spacingRight=4;overflow=hidden;rotatable=0;points=[[0,0.5],[1,0.5]];portConstraint=eastwest;rounded=1;" parent="47" vertex="1">
                    <mxGeometry y="324" width="225" height="26" as="geometry"/>
                </mxCell>
                <mxCell id="61" value="+ Player(int, String, String, double, double, KeyCode, KeyCode, KeyCode, KeyCode)" style="text;html=1;strokeColor=none;fillColor=none;align=left;verticalAlign=middle;spacingLeft=4;spacingRight=4;overflow=hidden;rotatable=0;points=[[0,0.5],[1,0.5]];portConstraint=eastwest;rounded=1;" parent="47" vertex="1">
                    <mxGeometry y="350" width="225" height="26" as="geometry"/>
                </mxCell>
                <mxCell id="62" value="+ Player(int, String, String, double, double, boolean)" style="text;html=1;strokeColor=none;fillColor=none;align=left;verticalAlign=middle;spacingLeft=4;spacingRight=4;overflow=hidden;rotatable=0;points=[[0,0.5],[1,0.5]];portConstraint=eastwest;rounded=1;" parent="47" vertex="1">
                    <mxGeometry y="376" width="225" height="26" as="geometry"/>
                </mxCell>
                <mxCell id="63" value="+ Player(boolean, int, String, String, double, double)" style="text;html=1;strokeColor=none;fillColor=none;align=left;verticalAlign=middle;spacingLeft=4;spacingRight=4;overflow=hidden;rotatable=0;points=[[0,0.5],[1,0.5]];portConstraint=eastwest;rounded=1;" parent="47" vertex="1">
                    <mxGeometry y="402" width="225" height="26" as="geometry"/>
                </mxCell>
                <mxCell id="64" value="+ getId(): int" style="text;html=1;strokeColor=none;fillColor=none;align=left;verticalAlign=middle;spacingLeft=4;spacingRight=4;overflow=hidden;rotatable=0;points=[[0,0.5],[1,0.5]];portConstraint=eastwest;rounded=1;" parent="47" vertex="1">
                    <mxGeometry y="428" width="225" height="26" as="geometry"/>
                </mxCell>
                <mxCell id="65" value="+ setId(int): void" style="text;html=1;strokeColor=none;fillColor=none;align=left;verticalAlign=middle;spacingLeft=4;spacingRight=4;overflow=hidden;rotatable=0;points=[[0,0.5],[1,0.5]];portConstraint=eastwest;rounded=1;" parent="47" vertex="1">
                    <mxGeometry y="454" width="225" height="26" as="geometry"/>
                </mxCell>
                <mxCell id="66" value="+ getName(): String" style="text;html=1;strokeColor=none;fillColor=none;align=left;verticalAlign=middle;spacingLeft=4;spacingRight=4;overflow=hidden;rotatable=0;points=[[0,0.5],[1,0.5]];portConstraint=eastwest;rounded=1;" parent="47" vertex="1">
                    <mxGeometry y="480" width="225" height="26" as="geometry"/>
                </mxCell>
                <mxCell id="67" value="+ setName(String): void" style="text;html=1;strokeColor=none;fillColor=none;align=left;verticalAlign=middle;spacingLeft=4;spacingRight=4;overflow=hidden;rotatable=0;points=[[0,0.5],[1,0.5]];portConstraint=eastwest;rounded=1;" parent="47" vertex="1">
                    <mxGeometry y="506" width="225" height="26" as="geometry"/>
                </mxCell>
                <mxCell id="68" value="+ getSkin(): String" style="text;html=1;strokeColor=none;fillColor=none;align=left;verticalAlign=middle;spacingLeft=4;spacingRight=4;overflow=hidden;rotatable=0;points=[[0,0.5],[1,0.5]];portConstraint=eastwest;rounded=1;" parent="47" vertex="1">
                    <mxGeometry y="532" width="225" height="26" as="geometry"/>
                </mxCell>
                <mxCell id="69" value="+ setSkin(String): void" style="text;html=1;strokeColor=none;fillColor=none;align=left;verticalAlign=middle;spacingLeft=4;spacingRight=4;overflow=hidden;rotatable=0;points=[[0,0.5],[1,0.5]];portConstraint=eastwest;rounded=1;" parent="47" vertex="1">
                    <mxGeometry y="558" width="225" height="26" as="geometry"/>
                </mxCell>
                <mxCell id="70" value="+ getSnake(): Snake" style="text;html=1;strokeColor=none;fillColor=none;align=left;verticalAlign=middle;spacingLeft=4;spacingRight=4;overflow=hidden;rotatable=0;points=[[0,0.5],[1,0.5]];portConstraint=eastwest;rounded=1;" parent="47" vertex="1">
                    <mxGeometry y="584" width="225" height="26" as="geometry"/>
                </mxCell>
                <mxCell id="71" value="+ isIa(): boolean" style="text;html=1;strokeColor=none;fillColor=none;align=left;verticalAlign=middle;spacingLeft=4;spacingRight=4;overflow=hidden;rotatable=0;points=[[0,0.5],[1,0.5]];portConstraint=eastwest;rounded=1;" parent="47" vertex="1">
                    <mxGeometry y="610" width="225" height="26" as="geometry"/>
                </mxCell>
                <mxCell id="72" value="+ isMouseControl(): boolean" style="text;html=1;strokeColor=none;fillColor=none;align=left;verticalAlign=middle;spacingLeft=4;spacingRight=4;overflow=hidden;rotatable=0;points=[[0,0.5],[1,0.5]];portConstraint=eastwest;rounded=1;" parent="47" vertex="1">
                    <mxGeometry y="636" width="225" height="26" as="geometry"/>
                </mxCell>
                <mxCell id="73" value="+ getKeyUp(): KeyCode" style="text;html=1;strokeColor=none;fillColor=none;align=left;verticalAlign=middle;spacingLeft=4;spacingRight=4;overflow=hidden;rotatable=0;points=[[0,0.5],[1,0.5]];portConstraint=eastwest;rounded=1;" parent="47" vertex="1">
                    <mxGeometry y="662" width="225" height="26" as="geometry"/>
                </mxCell>
                <mxCell id="74" value="+ getKeyDown(): KeyCode" style="text;html=1;strokeColor=none;fillColor=none;align=left;verticalAlign=middle;spacingLeft=4;spacingRight=4;overflow=hidden;rotatable=0;points=[[0,0.5],[1,0.5]];portConstraint=eastwest;rounded=1;" parent="47" vertex="1">
                    <mxGeometry y="688" width="225" height="26" as="geometry"/>
                </mxCell>
                <mxCell id="75" value="+ getKeyLeft(): KeyCode" style="text;html=1;strokeColor=none;fillColor=none;align=left;verticalAlign=middle;spacingLeft=4;spacingRight=4;overflow=hidden;rotatable=0;points=[[0,0.5],[1,0.5]];portConstraint=eastwest;rounded=1;" parent="47" vertex="1">
                    <mxGeometry y="714" width="225" height="26" as="geometry"/>
                </mxCell>
                <mxCell id="76" value="+ getKeyRight(): KeyCode" style="text;html=1;strokeColor=none;fillColor=none;align=left;verticalAlign=middle;spacingLeft=4;spacingRight=4;overflow=hidden;rotatable=0;points=[[0,0.5],[1,0.5]];portConstraint=eastwest;rounded=1;" parent="47" vertex="1">
                    <mxGeometry y="740" width="225" height="26" as="geometry"/>
                </mxCell>
                <mxCell id="77" value="SnakeSlitherGame" style="swimlane;fontStyle=0;align=center;verticalAlign=top;childLayout=stackLayout;horizontal=1;startSize=30;horizontalStack=0;resizeParent=1;resizeParentMax=0;resizeLast=0;collapsible=0;marginBottom=0;html=1;rounded=1;" parent="1" vertex="1">
                    <mxGeometry x="14" y="1493" width="225" height="64" as="geometry"/>
                </mxCell>
                <mxCell id="78" style="line;strokeWidth=1;fillColor=none;align=left;verticalAlign=middle;spacingTop=-1;spacingLeft=3;spacingRight=3;rotatable=0;labelPosition=right;points=[];portConstraint=eastwest;rounded=1;" parent="77" vertex="1">
                    <mxGeometry y="30" width="225" height="8" as="geometry"/>
                </mxCell>
                <mxCell id="79" value="+ SnakeSlitherGame(double, double, double, double, Player, Player)" style="text;html=1;strokeColor=none;fillColor=none;align=left;verticalAlign=middle;spacingLeft=4;spacingRight=4;overflow=hidden;rotatable=0;points=[[0,0.5],[1,0.5]];portConstraint=eastwest;rounded=1;" parent="77" vertex="1">
                    <mxGeometry y="38" width="225" height="26" as="geometry"/>
                </mxCell>
                <mxCell id="80" value="Food" style="swimlane;fontStyle=0;align=center;verticalAlign=top;childLayout=stackLayout;horizontal=1;startSize=30;horizontalStack=0;resizeParent=1;resizeParentMax=0;resizeLast=0;collapsible=0;marginBottom=0;html=1;rounded=1;" parent="1" vertex="1">
                    <mxGeometry x="596" y="427" width="225" height="246" as="geometry"/>
                </mxCell>
                <mxCell id="81" value="- defaultWidth : double" style="text;html=1;strokeColor=none;fillColor=none;align=left;verticalAlign=middle;spacingLeft=4;spacingRight=4;overflow=hidden;rotatable=0;points=[[0,0.5],[1,0.5]];portConstraint=eastwest;rounded=1;" parent="80" vertex="1">
                    <mxGeometry y="30" width="225" height="26" as="geometry"/>
                </mxCell>
                <mxCell id="82" value="- defaultHeight : double" style="text;html=1;strokeColor=none;fillColor=none;align=left;verticalAlign=middle;spacingLeft=4;spacingRight=4;overflow=hidden;rotatable=0;points=[[0,0.5],[1,0.5]];portConstraint=eastwest;rounded=1;" parent="80" vertex="1">
                    <mxGeometry y="56" width="225" height="26" as="geometry"/>
                </mxCell>
                <mxCell id="83" value="- defaultDx : double" style="text;html=1;strokeColor=none;fillColor=none;align=left;verticalAlign=middle;spacingLeft=4;spacingRight=4;overflow=hidden;rotatable=0;points=[[0,0.5],[1,0.5]];portConstraint=eastwest;rounded=1;" parent="80" vertex="1">
                    <mxGeometry y="82" width="225" height="26" as="geometry"/>
                </mxCell>
                <mxCell id="84" value="- defaultDy : double" style="text;html=1;strokeColor=none;fillColor=none;align=left;verticalAlign=middle;spacingLeft=4;spacingRight=4;overflow=hidden;rotatable=0;points=[[0,0.5],[1,0.5]];portConstraint=eastwest;rounded=1;" parent="80" vertex="1">
                    <mxGeometry y="108" width="225" height="26" as="geometry"/>
                </mxCell>
                <mxCell id="85" value="- defaultAngle : double" style="text;html=1;strokeColor=none;fillColor=none;align=left;verticalAlign=middle;spacingLeft=4;spacingRight=4;overflow=hidden;rotatable=0;points=[[0,0.5],[1,0.5]];portConstraint=eastwest;rounded=1;" parent="80" vertex="1">
                    <mxGeometry y="134" width="225" height="26" as="geometry"/>
                </mxCell>
                <mxCell id="86" style="line;strokeWidth=1;fillColor=none;align=left;verticalAlign=middle;spacingTop=-1;spacingLeft=3;spacingRight=3;rotatable=0;labelPosition=right;points=[];portConstraint=eastwest;rounded=1;" parent="80" vertex="1">
                    <mxGeometry y="160" width="225" height="8" as="geometry"/>
                </mxCell>
                <mxCell id="87" value="+ Food(double, double, double, double, double, double, double)" style="text;html=1;strokeColor=none;fillColor=none;align=left;verticalAlign=middle;spacingLeft=4;spacingRight=4;overflow=hidden;rotatable=0;points=[[0,0.5],[1,0.5]];portConstraint=eastwest;rounded=1;" parent="80" vertex="1">
                    <mxGeometry y="168" width="225" height="26" as="geometry"/>
                </mxCell>
                <mxCell id="88" value="+ Food(double, double)" style="text;html=1;strokeColor=none;fillColor=none;align=left;verticalAlign=middle;spacingLeft=4;spacingRight=4;overflow=hidden;rotatable=0;points=[[0,0.5],[1,0.5]];portConstraint=eastwest;rounded=1;" parent="80" vertex="1">
                    <mxGeometry y="194" width="225" height="26" as="geometry"/>
                </mxCell>
                <mxCell id="89" value="+ FoodRandom(double, double): Food" style="text;html=1;strokeColor=none;fillColor=none;align=left;verticalAlign=middle;spacingLeft=4;spacingRight=4;overflow=hidden;rotatable=0;points=[[0,0.5],[1,0.5]];portConstraint=eastwest;fontStyle=4;rounded=1;" parent="80" vertex="1">
                    <mxGeometry y="220" width="225" height="26" as="geometry"/>
                </mxCell>
                <mxCell id="90" value="Snake" style="swimlane;fontStyle=0;align=center;verticalAlign=top;childLayout=stackLayout;horizontal=1;startSize=30;horizontalStack=0;resizeParent=1;resizeParentMax=0;resizeLast=0;collapsible=0;marginBottom=0;html=1;rounded=1;" parent="1" vertex="1">
                    <mxGeometry x="604" y="807" width="225" height="168" as="geometry"/>
                </mxCell>
                <mxCell id="91" value="- body : ListProperty&lt;Segment&gt;&amp;lt;Segment&amp;gt;" style="text;html=1;strokeColor=none;fillColor=none;align=left;verticalAlign=middle;spacingLeft=4;spacingRight=4;overflow=hidden;rotatable=0;points=[[0,0.5],[1,0.5]];portConstraint=eastwest;rounded=1;" parent="90" vertex="1">
                    <mxGeometry y="30" width="225" height="26" as="geometry"/>
                </mxCell>
                <mxCell id="92" value="- skin : String" style="text;html=1;strokeColor=none;fillColor=none;align=left;verticalAlign=middle;spacingLeft=4;spacingRight=4;overflow=hidden;rotatable=0;points=[[0,0.5],[1,0.5]];portConstraint=eastwest;rounded=1;" parent="90" vertex="1">
                    <mxGeometry y="56" width="225" height="26" as="geometry"/>
                </mxCell>
                <mxCell id="93" style="line;strokeWidth=1;fillColor=none;align=left;verticalAlign=middle;spacingTop=-1;spacingLeft=3;spacingRight=3;rotatable=0;labelPosition=right;points=[];portConstraint=eastwest;rounded=1;" parent="90" vertex="1">
                    <mxGeometry y="82" width="225" height="8" as="geometry"/>
                </mxCell>
                <mxCell id="94" value="+ Snake(String, double, double)" style="text;html=1;strokeColor=none;fillColor=none;align=left;verticalAlign=middle;spacingLeft=4;spacingRight=4;overflow=hidden;rotatable=0;points=[[0,0.5],[1,0.5]];portConstraint=eastwest;rounded=1;" parent="90" vertex="1">
                    <mxGeometry y="90" width="225" height="26" as="geometry"/>
                </mxCell>
                <mxCell id="95" value="+ move(double): void" style="text;html=1;strokeColor=none;fillColor=none;align=left;verticalAlign=middle;spacingLeft=4;spacingRight=4;overflow=hidden;rotatable=0;points=[[0,0.5],[1,0.5]];portConstraint=eastwest;rounded=1;" parent="90" vertex="1">
                    <mxGeometry y="116" width="225" height="26" as="geometry"/>
                </mxCell>
                <mxCell id="96" value="+ moveToDirection(double, double): void" style="text;html=1;strokeColor=none;fillColor=none;align=left;verticalAlign=middle;spacingLeft=4;spacingRight=4;overflow=hidden;rotatable=0;points=[[0,0.5],[1,0.5]];portConstraint=eastwest;rounded=1;" parent="90" vertex="1">
                    <mxGeometry y="142" width="225" height="26" as="geometry"/>
                </mxCell>
                <mxCell id="97" value="Segment" style="swimlane;fontStyle=0;align=center;verticalAlign=top;childLayout=stackLayout;horizontal=1;startSize=30;horizontalStack=0;resizeParent=1;resizeParentMax=0;resizeLast=0;collapsible=0;marginBottom=0;html=1;rounded=1;" parent="1" vertex="1">
                    <mxGeometry x="596" y="53" width="225" height="246" as="geometry"/>
                </mxCell>
                <mxCell id="98" value="- defaultWidth : double" style="text;html=1;strokeColor=none;fillColor=none;align=left;verticalAlign=middle;spacingLeft=4;spacingRight=4;overflow=hidden;rotatable=0;points=[[0,0.5],[1,0.5]];portConstraint=eastwest;rounded=1;" parent="97" vertex="1">
                    <mxGeometry y="30" width="225" height="26" as="geometry"/>
                </mxCell>
                <mxCell id="99" value="- defaultHeight : double" style="text;html=1;strokeColor=none;fillColor=none;align=left;verticalAlign=middle;spacingLeft=4;spacingRight=4;overflow=hidden;rotatable=0;points=[[0,0.5],[1,0.5]];portConstraint=eastwest;rounded=1;" parent="97" vertex="1">
                    <mxGeometry y="56" width="225" height="26" as="geometry"/>
                </mxCell>
                <mxCell id="100" value="- defaultDx : double" style="text;html=1;strokeColor=none;fillColor=none;align=left;verticalAlign=middle;spacingLeft=4;spacingRight=4;overflow=hidden;rotatable=0;points=[[0,0.5],[1,0.5]];portConstraint=eastwest;rounded=1;" parent="97" vertex="1">
                    <mxGeometry y="82" width="225" height="26" as="geometry"/>
                </mxCell>
                <mxCell id="101" value="- defaultDy : double" style="text;html=1;strokeColor=none;fillColor=none;align=left;verticalAlign=middle;spacingLeft=4;spacingRight=4;overflow=hidden;rotatable=0;points=[[0,0.5],[1,0.5]];portConstraint=eastwest;rounded=1;" parent="97" vertex="1">
                    <mxGeometry y="108" width="225" height="26" as="geometry"/>
                </mxCell>
                <mxCell id="102" value="- defaultAngle : double" style="text;html=1;strokeColor=none;fillColor=none;align=left;verticalAlign=middle;spacingLeft=4;spacingRight=4;overflow=hidden;rotatable=0;points=[[0,0.5],[1,0.5]];portConstraint=eastwest;rounded=1;" parent="97" vertex="1">
                    <mxGeometry y="134" width="225" height="26" as="geometry"/>
                </mxCell>
                <mxCell id="103" style="line;strokeWidth=1;fillColor=none;align=left;verticalAlign=middle;spacingTop=-1;spacingLeft=3;spacingRight=3;rotatable=0;labelPosition=right;points=[];portConstraint=eastwest;rounded=1;" parent="97" vertex="1">
                    <mxGeometry y="160" width="225" height="8" as="geometry"/>
                </mxCell>
                <mxCell id="104" value="+ Segment(double, double, double, double, double, double, double)" style="text;html=1;strokeColor=none;fillColor=none;align=left;verticalAlign=middle;spacingLeft=4;spacingRight=4;overflow=hidden;rotatable=0;points=[[0,0.5],[1,0.5]];portConstraint=eastwest;rounded=1;" parent="97" vertex="1">
                    <mxGeometry y="168" width="225" height="26" as="geometry"/>
                </mxCell>
                <mxCell id="105" value="+ Segment(double, double, double)" style="text;html=1;strokeColor=none;fillColor=none;align=left;verticalAlign=middle;spacingLeft=4;spacingRight=4;overflow=hidden;rotatable=0;points=[[0,0.5],[1,0.5]];portConstraint=eastwest;rounded=1;" parent="97" vertex="1">
                    <mxGeometry y="194" width="225" height="26" as="geometry"/>
                </mxCell>
                <mxCell id="106" value="+ Segment(double, double)" style="text;html=1;strokeColor=none;fillColor=none;align=left;verticalAlign=middle;spacingLeft=4;spacingRight=4;overflow=hidden;rotatable=0;points=[[0,0.5],[1,0.5]];portConstraint=eastwest;rounded=1;" parent="97" vertex="1">
                    <mxGeometry y="220" width="225" height="26" as="geometry"/>
                </mxCell>
                <mxCell id="107" value="GameObject" style="swimlane;fontStyle=0;align=center;verticalAlign=top;childLayout=stackLayout;horizontal=1;startSize=30;horizontalStack=0;resizeParent=1;resizeParentMax=0;resizeLast=0;collapsible=0;marginBottom=0;html=1;rounded=1;" parent="1" vertex="1">
                    <mxGeometry x="79" y="53" width="225" height="922" as="geometry"/>
                </mxCell>
                <mxCell id="108" value="- x : DoubleProperty" style="text;html=1;strokeColor=none;fillColor=none;align=left;verticalAlign=middle;spacingLeft=4;spacingRight=4;overflow=hidden;rotatable=0;points=[[0,0.5],[1,0.5]];portConstraint=eastwest;rounded=1;" parent="107" vertex="1">
                    <mxGeometry y="30" width="225" height="26" as="geometry"/>
                </mxCell>
                <mxCell id="109" value="- y : DoubleProperty" style="text;html=1;strokeColor=none;fillColor=none;align=left;verticalAlign=middle;spacingLeft=4;spacingRight=4;overflow=hidden;rotatable=0;points=[[0,0.5],[1,0.5]];portConstraint=eastwest;rounded=1;" parent="107" vertex="1">
                    <mxGeometry y="56" width="225" height="26" as="geometry"/>
                </mxCell>
                <mxCell id="110" value="- width : DoubleProperty" style="text;html=1;strokeColor=none;fillColor=none;align=left;verticalAlign=middle;spacingLeft=4;spacingRight=4;overflow=hidden;rotatable=0;points=[[0,0.5],[1,0.5]];portConstraint=eastwest;rounded=1;" parent="107" vertex="1">
                    <mxGeometry y="82" width="225" height="26" as="geometry"/>
                </mxCell>
                <mxCell id="111" value="- height : DoubleProperty" style="text;html=1;strokeColor=none;fillColor=none;align=left;verticalAlign=middle;spacingLeft=4;spacingRight=4;overflow=hidden;rotatable=0;points=[[0,0.5],[1,0.5]];portConstraint=eastwest;rounded=1;" parent="107" vertex="1">
                    <mxGeometry y="108" width="225" height="26" as="geometry"/>
                </mxCell>
                <mxCell id="112" value="- angle : DoubleProperty" style="text;html=1;strokeColor=none;fillColor=none;align=left;verticalAlign=middle;spacingLeft=4;spacingRight=4;overflow=hidden;rotatable=0;points=[[0,0.5],[1,0.5]];portConstraint=eastwest;rounded=1;" parent="107" vertex="1">
                    <mxGeometry y="134" width="225" height="26" as="geometry"/>
                </mxCell>
                <mxCell id="113" value="- dx : double" style="text;html=1;strokeColor=none;fillColor=none;align=left;verticalAlign=middle;spacingLeft=4;spacingRight=4;overflow=hidden;rotatable=0;points=[[0,0.5],[1,0.5]];portConstraint=eastwest;rounded=1;" parent="107" vertex="1">
                    <mxGeometry y="160" width="225" height="26" as="geometry"/>
                </mxCell>
                <mxCell id="114" value="- dy : double" style="text;html=1;strokeColor=none;fillColor=none;align=left;verticalAlign=middle;spacingLeft=4;spacingRight=4;overflow=hidden;rotatable=0;points=[[0,0.5],[1,0.5]];portConstraint=eastwest;rounded=1;" parent="107" vertex="1">
                    <mxGeometry y="186" width="225" height="26" as="geometry"/>
                </mxCell>
                <mxCell id="115" style="line;strokeWidth=1;fillColor=none;align=left;verticalAlign=middle;spacingTop=-1;spacingLeft=3;spacingRight=3;rotatable=0;labelPosition=right;points=[];portConstraint=eastwest;rounded=1;" parent="107" vertex="1">
                    <mxGeometry y="212" width="225" height="8" as="geometry"/>
                </mxCell>
                <mxCell id="116" value="+ GameObject(double, double, double, double, double, double, double)" style="text;html=1;strokeColor=none;fillColor=none;align=left;verticalAlign=middle;spacingLeft=4;spacingRight=4;overflow=hidden;rotatable=0;points=[[0,0.5],[1,0.5]];portConstraint=eastwest;rounded=1;" parent="107" vertex="1">
                    <mxGeometry y="220" width="225" height="26" as="geometry"/>
                </mxCell>
                <mxCell id="117" value="+ collides(GameObject): boolean" style="text;html=1;strokeColor=none;fillColor=none;align=left;verticalAlign=middle;spacingLeft=4;spacingRight=4;overflow=hidden;rotatable=0;points=[[0,0.5],[1,0.5]];portConstraint=eastwest;rounded=1;" parent="107" vertex="1">
                    <mxGeometry y="246" width="225" height="26" as="geometry"/>
                </mxCell>
                <mxCell id="118" value="+ collides(double, double): boolean" style="text;html=1;strokeColor=none;fillColor=none;align=left;verticalAlign=middle;spacingLeft=4;spacingRight=4;overflow=hidden;rotatable=0;points=[[0,0.5],[1,0.5]];portConstraint=eastwest;rounded=1;" parent="107" vertex="1">
                    <mxGeometry y="272" width="225" height="26" as="geometry"/>
                </mxCell>
                <mxCell id="119" value="+ isOut(double, double): boolean" style="text;html=1;strokeColor=none;fillColor=none;align=left;verticalAlign=middle;spacingLeft=4;spacingRight=4;overflow=hidden;rotatable=0;points=[[0,0.5],[1,0.5]];portConstraint=eastwest;rounded=1;" parent="107" vertex="1">
                    <mxGeometry y="298" width="225" height="26" as="geometry"/>
                </mxCell>
                <mxCell id="120" value="+ getXProperty(): DoubleProperty" style="text;html=1;strokeColor=none;fillColor=none;align=left;verticalAlign=middle;spacingLeft=4;spacingRight=4;overflow=hidden;rotatable=0;points=[[0,0.5],[1,0.5]];portConstraint=eastwest;rounded=1;" parent="107" vertex="1">
                    <mxGeometry y="324" width="225" height="26" as="geometry"/>
                </mxCell>
                <mxCell id="121" value="+ getYProperty(): DoubleProperty" style="text;html=1;strokeColor=none;fillColor=none;align=left;verticalAlign=middle;spacingLeft=4;spacingRight=4;overflow=hidden;rotatable=0;points=[[0,0.5],[1,0.5]];portConstraint=eastwest;rounded=1;" parent="107" vertex="1">
                    <mxGeometry y="350" width="225" height="26" as="geometry"/>
                </mxCell>
                <mxCell id="122" value="+ getWidthProperty(): DoubleProperty" style="text;html=1;strokeColor=none;fillColor=none;align=left;verticalAlign=middle;spacingLeft=4;spacingRight=4;overflow=hidden;rotatable=0;points=[[0,0.5],[1,0.5]];portConstraint=eastwest;rounded=1;" parent="107" vertex="1">
                    <mxGeometry y="376" width="225" height="26" as="geometry"/>
                </mxCell>
                <mxCell id="123" value="+ getHeightProperty(): DoubleProperty" style="text;html=1;strokeColor=none;fillColor=none;align=left;verticalAlign=middle;spacingLeft=4;spacingRight=4;overflow=hidden;rotatable=0;points=[[0,0.5],[1,0.5]];portConstraint=eastwest;rounded=1;" parent="107" vertex="1">
                    <mxGeometry y="402" width="225" height="26" as="geometry"/>
                </mxCell>
                <mxCell id="124" value="+ getAngleProperty(): DoubleProperty" style="text;html=1;strokeColor=none;fillColor=none;align=left;verticalAlign=middle;spacingLeft=4;spacingRight=4;overflow=hidden;rotatable=0;points=[[0,0.5],[1,0.5]];portConstraint=eastwest;rounded=1;" parent="107" vertex="1">
                    <mxGeometry y="428" width="225" height="26" as="geometry"/>
                </mxCell>
                <mxCell id="125" value="+ getAngle(): double" style="text;html=1;strokeColor=none;fillColor=none;align=left;verticalAlign=middle;spacingLeft=4;spacingRight=4;overflow=hidden;rotatable=0;points=[[0,0.5],[1,0.5]];portConstraint=eastwest;rounded=1;" parent="107" vertex="1">
                    <mxGeometry y="454" width="225" height="26" as="geometry"/>
                </mxCell>
                <mxCell id="126" value="+ setAngle(double): void" style="text;html=1;strokeColor=none;fillColor=none;align=left;verticalAlign=middle;spacingLeft=4;spacingRight=4;overflow=hidden;rotatable=0;points=[[0,0.5],[1,0.5]];portConstraint=eastwest;rounded=1;" parent="107" vertex="1">
                    <mxGeometry y="480" width="225" height="26" as="geometry"/>
                </mxCell>
                <mxCell id="127" value="+ getCenterX(): double" style="text;html=1;strokeColor=none;fillColor=none;align=left;verticalAlign=middle;spacingLeft=4;spacingRight=4;overflow=hidden;rotatable=0;points=[[0,0.5],[1,0.5]];portConstraint=eastwest;rounded=1;" parent="107" vertex="1">
                    <mxGeometry y="506" width="225" height="26" as="geometry"/>
                </mxCell>
                <mxCell id="128" value="+ setCenterX(double): void" style="text;html=1;strokeColor=none;fillColor=none;align=left;verticalAlign=middle;spacingLeft=4;spacingRight=4;overflow=hidden;rotatable=0;points=[[0,0.5],[1,0.5]];portConstraint=eastwest;rounded=1;" parent="107" vertex="1">
                    <mxGeometry y="532" width="225" height="26" as="geometry"/>
                </mxCell>
                <mxCell id="129" value="+ getCenterY(): double" style="text;html=1;strokeColor=none;fillColor=none;align=left;verticalAlign=middle;spacingLeft=4;spacingRight=4;overflow=hidden;rotatable=0;points=[[0,0.5],[1,0.5]];portConstraint=eastwest;rounded=1;" parent="107" vertex="1">
                    <mxGeometry y="558" width="225" height="26" as="geometry"/>
                </mxCell>
                <mxCell id="130" value="+ setCenterY(double): void" style="text;html=1;strokeColor=none;fillColor=none;align=left;verticalAlign=middle;spacingLeft=4;spacingRight=4;overflow=hidden;rotatable=0;points=[[0,0.5],[1,0.5]];portConstraint=eastwest;rounded=1;" parent="107" vertex="1">
                    <mxGeometry y="584" width="225" height="26" as="geometry"/>
                </mxCell>
                <mxCell id="131" value="+ getLeft(): double" style="text;html=1;strokeColor=none;fillColor=none;align=left;verticalAlign=middle;spacingLeft=4;spacingRight=4;overflow=hidden;rotatable=0;points=[[0,0.5],[1,0.5]];portConstraint=eastwest;rounded=1;" parent="107" vertex="1">
                    <mxGeometry y="610" width="225" height="26" as="geometry"/>
                </mxCell>
                <mxCell id="132" value="+ getRight(): double" style="text;html=1;strokeColor=none;fillColor=none;align=left;verticalAlign=middle;spacingLeft=4;spacingRight=4;overflow=hidden;rotatable=0;points=[[0,0.5],[1,0.5]];portConstraint=eastwest;rounded=1;" parent="107" vertex="1">
                    <mxGeometry y="636" width="225" height="26" as="geometry"/>
                </mxCell>
                <mxCell id="133" value="+ getUp(): double" style="text;html=1;strokeColor=none;fillColor=none;align=left;verticalAlign=middle;spacingLeft=4;spacingRight=4;overflow=hidden;rotatable=0;points=[[0,0.5],[1,0.5]];portConstraint=eastwest;rounded=1;" parent="107" vertex="1">
                    <mxGeometry y="662" width="225" height="26" as="geometry"/>
                </mxCell>
                <mxCell id="134" value="+ getDown(): double" style="text;html=1;strokeColor=none;fillColor=none;align=left;verticalAlign=middle;spacingLeft=4;spacingRight=4;overflow=hidden;rotatable=0;points=[[0,0.5],[1,0.5]];portConstraint=eastwest;rounded=1;" parent="107" vertex="1">
                    <mxGeometry y="688" width="225" height="26" as="geometry"/>
                </mxCell>
                <mxCell id="135" value="+ getWidth(): double" style="text;html=1;strokeColor=none;fillColor=none;align=left;verticalAlign=middle;spacingLeft=4;spacingRight=4;overflow=hidden;rotatable=0;points=[[0,0.5],[1,0.5]];portConstraint=eastwest;rounded=1;" parent="107" vertex="1">
                    <mxGeometry y="714" width="225" height="26" as="geometry"/>
                </mxCell>
                <mxCell id="136" value="+ setWidth(double): void" style="text;html=1;strokeColor=none;fillColor=none;align=left;verticalAlign=middle;spacingLeft=4;spacingRight=4;overflow=hidden;rotatable=0;points=[[0,0.5],[1,0.5]];portConstraint=eastwest;rounded=1;" parent="107" vertex="1">
                    <mxGeometry y="740" width="225" height="26" as="geometry"/>
                </mxCell>
                <mxCell id="137" value="+ getHeight(): double" style="text;html=1;strokeColor=none;fillColor=none;align=left;verticalAlign=middle;spacingLeft=4;spacingRight=4;overflow=hidden;rotatable=0;points=[[0,0.5],[1,0.5]];portConstraint=eastwest;rounded=1;" parent="107" vertex="1">
                    <mxGeometry y="766" width="225" height="26" as="geometry"/>
                </mxCell>
                <mxCell id="138" value="+ setHeight(double): void" style="text;html=1;strokeColor=none;fillColor=none;align=left;verticalAlign=middle;spacingLeft=4;spacingRight=4;overflow=hidden;rotatable=0;points=[[0,0.5],[1,0.5]];portConstraint=eastwest;rounded=1;" parent="107" vertex="1">
                    <mxGeometry y="792" width="225" height="26" as="geometry"/>
                </mxCell>
                <mxCell id="139" value="+ getDx(): double" style="text;html=1;strokeColor=none;fillColor=none;align=left;verticalAlign=middle;spacingLeft=4;spacingRight=4;overflow=hidden;rotatable=0;points=[[0,0.5],[1,0.5]];portConstraint=eastwest;rounded=1;" parent="107" vertex="1">
                    <mxGeometry y="818" width="225" height="26" as="geometry"/>
                </mxCell>
                <mxCell id="140" value="+ setDx(double): void" style="text;html=1;strokeColor=none;fillColor=none;align=left;verticalAlign=middle;spacingLeft=4;spacingRight=4;overflow=hidden;rotatable=0;points=[[0,0.5],[1,0.5]];portConstraint=eastwest;rounded=1;" parent="107" vertex="1">
                    <mxGeometry y="844" width="225" height="26" as="geometry"/>
                </mxCell>
                <mxCell id="141" value="+ getDy(): double" style="text;html=1;strokeColor=none;fillColor=none;align=left;verticalAlign=middle;spacingLeft=4;spacingRight=4;overflow=hidden;rotatable=0;points=[[0,0.5],[1,0.5]];portConstraint=eastwest;rounded=1;" parent="107" vertex="1">
                    <mxGeometry y="870" width="225" height="26" as="geometry"/>
                </mxCell>
                <mxCell id="142" value="+ setDy(double): void" style="text;html=1;strokeColor=none;fillColor=none;align=left;verticalAlign=middle;spacingLeft=4;spacingRight=4;overflow=hidden;rotatable=0;points=[[0,0.5],[1,0.5]];portConstraint=eastwest;rounded=1;" parent="107" vertex="1">
                    <mxGeometry y="896" width="225" height="26" as="geometry"/>
                </mxCell>
                <mxCell id="143" value="FoodView" style="swimlane;fontStyle=0;align=center;verticalAlign=top;childLayout=stackLayout;horizontal=1;startSize=30;horizontalStack=0;resizeParent=1;resizeParentMax=0;resizeLast=0;collapsible=0;marginBottom=0;html=1;rounded=1;" parent="1" vertex="1">
                    <mxGeometry x="984" y="482" width="225" height="64" as="geometry"/>
                </mxCell>
                <mxCell id="144" style="line;strokeWidth=1;fillColor=none;align=left;verticalAlign=middle;spacingTop=-1;spacingLeft=3;spacingRight=3;rotatable=0;labelPosition=right;points=[];portConstraint=eastwest;rounded=1;" parent="143" vertex="1">
                    <mxGeometry y="30" width="225" height="8" as="geometry"/>
                </mxCell>
                <mxCell id="145" value="# FoodView(GameObject)" style="text;html=1;strokeColor=none;fillColor=none;align=left;verticalAlign=middle;spacingLeft=4;spacingRight=4;overflow=hidden;rotatable=0;points=[[0,0.5],[1,0.5]];portConstraint=eastwest;rounded=1;" parent="143" vertex="1">
                    <mxGeometry y="38" width="225" height="26" as="geometry"/>
                </mxCell>
                <mxCell id="146" value="SegmentView" style="swimlane;fontStyle=0;align=center;verticalAlign=top;childLayout=stackLayout;horizontal=1;startSize=30;horizontalStack=0;resizeParent=1;resizeParentMax=0;resizeLast=0;collapsible=0;marginBottom=0;html=1;rounded=1;" parent="1" vertex="1">
                    <mxGeometry x="984" y="53" width="225" height="64" as="geometry"/>
                </mxCell>
                <mxCell id="147" style="line;strokeWidth=1;fillColor=none;align=left;verticalAlign=middle;spacingTop=-1;spacingLeft=3;spacingRight=3;rotatable=0;labelPosition=right;points=[];portConstraint=eastwest;rounded=1;" parent="146" vertex="1">
                    <mxGeometry y="30" width="225" height="8" as="geometry"/>
                </mxCell>
                <mxCell id="148" value="+ SegmentView(GameObject, String)" style="text;html=1;strokeColor=none;fillColor=none;align=left;verticalAlign=middle;spacingLeft=4;spacingRight=4;overflow=hidden;rotatable=0;points=[[0,0.5],[1,0.5]];portConstraint=eastwest;rounded=1;" parent="146" vertex="1">
                    <mxGeometry y="38" width="225" height="26" as="geometry"/>
                </mxCell>
                <mxCell id="159" value="SnakeView" style="swimlane;fontStyle=0;align=center;verticalAlign=top;childLayout=stackLayout;horizontal=1;startSize=30;horizontalStack=0;resizeParent=1;resizeParentMax=0;resizeLast=0;collapsible=0;marginBottom=0;html=1;rounded=1;" parent="1" vertex="1">
                    <mxGeometry x="984" y="807" width="225" height="142" as="geometry"/>
                </mxCell>
                <mxCell id="160" value="- snake : Snake" style="text;html=1;strokeColor=none;fillColor=none;align=left;verticalAlign=middle;spacingLeft=4;spacingRight=4;overflow=hidden;rotatable=0;points=[[0,0.5],[1,0.5]];portConstraint=eastwest;rounded=1;" parent="159" vertex="1">
                    <mxGeometry y="30" width="225" height="26" as="geometry"/>
                </mxCell>
                <mxCell id="161" value="- bodyView : List&lt;SegmentView&gt;&amp;lt;SegmentView&amp;gt;" style="text;html=1;strokeColor=none;fillColor=none;align=left;verticalAlign=middle;spacingLeft=4;spacingRight=4;overflow=hidden;rotatable=0;points=[[0,0.5],[1,0.5]];portConstraint=eastwest;rounded=1;" parent="159" vertex="1">
                    <mxGeometry y="56" width="225" height="26" as="geometry"/>
                </mxCell>
                <mxCell id="162" style="line;strokeWidth=1;fillColor=none;align=left;verticalAlign=middle;spacingTop=-1;spacingLeft=3;spacingRight=3;rotatable=0;labelPosition=right;points=[];portConstraint=eastwest;rounded=1;" parent="159" vertex="1">
                    <mxGeometry y="82" width="225" height="8" as="geometry"/>
                </mxCell>
                <mxCell id="163" value="+ SnakeView(GameView, Snake)" style="text;html=1;strokeColor=none;fillColor=none;align=left;verticalAlign=middle;spacingLeft=4;spacingRight=4;overflow=hidden;rotatable=0;points=[[0,0.5],[1,0.5]];portConstraint=eastwest;rounded=1;" parent="159" vertex="1">
                    <mxGeometry y="90" width="225" height="26" as="geometry"/>
                </mxCell>
                <mxCell id="164" value="+ bind(GameView, SnakeView): void" style="text;html=1;strokeColor=none;fillColor=none;align=left;verticalAlign=middle;spacingLeft=4;spacingRight=4;overflow=hidden;rotatable=0;points=[[0,0.5],[1,0.5]];portConstraint=eastwest;rounded=1;" parent="159" vertex="1">
                    <mxGeometry y="116" width="225" height="26" as="geometry"/>
                </mxCell>
                <mxCell id="165" value="GameView" style="swimlane;fontStyle=0;align=center;verticalAlign=top;childLayout=stackLayout;horizontal=1;startSize=30;horizontalStack=0;resizeParent=1;resizeParentMax=0;resizeLast=0;collapsible=0;marginBottom=0;html=1;rounded=1;" parent="1" vertex="1">
                    <mxGeometry x="1163" y="1140" width="225" height="688" as="geometry"/>
                </mxCell>
                <mxCell id="166" value="- root : Pane" style="text;html=1;strokeColor=none;fillColor=none;align=left;verticalAlign=middle;spacingLeft=4;spacingRight=4;overflow=hidden;rotatable=0;points=[[0,0.5],[1,0.5]];portConstraint=eastwest;rounded=1;" parent="165" vertex="1">
                    <mxGeometry y="30" width="225" height="26" as="geometry"/>
                </mxCell>
                <mxCell id="167" value="- width : DoubleProperty" style="text;html=1;strokeColor=none;fillColor=none;align=left;verticalAlign=middle;spacingLeft=4;spacingRight=4;overflow=hidden;rotatable=0;points=[[0,0.5],[1,0.5]];portConstraint=eastwest;rounded=1;" parent="165" vertex="1">
                    <mxGeometry y="56" width="225" height="26" as="geometry"/>
                </mxCell>
                <mxCell id="168" value="- height : DoubleProperty" style="text;html=1;strokeColor=none;fillColor=none;align=left;verticalAlign=middle;spacingLeft=4;spacingRight=4;overflow=hidden;rotatable=0;points=[[0,0.5],[1,0.5]];portConstraint=eastwest;rounded=1;" parent="165" vertex="1">
                    <mxGeometry y="82" width="225" height="26" as="geometry"/>
                </mxCell>
                <mxCell id="169" value="- foodsToDisplay : List&lt;DisplayableObject&gt;&amp;lt;DisplayableObject&amp;gt;" style="text;html=1;strokeColor=none;fillColor=none;align=left;verticalAlign=middle;spacingLeft=4;spacingRight=4;overflow=hidden;rotatable=0;points=[[0,0.5],[1,0.5]];portConstraint=eastwest;rounded=1;" parent="165" vertex="1">
                    <mxGeometry y="108" width="225" height="26" as="geometry"/>
                </mxCell>
                <mxCell id="170" value="- snakesToDisplay : List&lt;SnakeView&gt;&amp;lt;SnakeView&amp;gt;" style="text;html=1;strokeColor=none;fillColor=none;align=left;verticalAlign=middle;spacingLeft=4;spacingRight=4;overflow=hidden;rotatable=0;points=[[0,0.5],[1,0.5]];portConstraint=eastwest;rounded=1;" parent="165" vertex="1">
                    <mxGeometry y="134" width="225" height="26" as="geometry"/>
                </mxCell>
                <mxCell id="171" value="- ox : Double" style="text;html=1;strokeColor=none;fillColor=none;align=left;verticalAlign=middle;spacingLeft=4;spacingRight=4;overflow=hidden;rotatable=0;points=[[0,0.5],[1,0.5]];portConstraint=eastwest;rounded=1;" parent="165" vertex="1">
                    <mxGeometry y="160" width="225" height="26" as="geometry"/>
                </mxCell>
                <mxCell id="172" value="- oy : Double" style="text;html=1;strokeColor=none;fillColor=none;align=left;verticalAlign=middle;spacingLeft=4;spacingRight=4;overflow=hidden;rotatable=0;points=[[0,0.5],[1,0.5]];portConstraint=eastwest;rounded=1;" parent="165" vertex="1">
                    <mxGeometry y="186" width="225" height="26" as="geometry"/>
                </mxCell>
                <mxCell id="173" style="line;strokeWidth=1;fillColor=none;align=left;verticalAlign=middle;spacingTop=-1;spacingLeft=3;spacingRight=3;rotatable=0;labelPosition=right;points=[];portConstraint=eastwest;rounded=1;" parent="165" vertex="1">
                    <mxGeometry y="212" width="225" height="8" as="geometry"/>
                </mxCell>
                <mxCell id="174" value="# GameView(Pane, double, double, double, double)" style="text;html=1;strokeColor=none;fillColor=none;align=left;verticalAlign=middle;spacingLeft=4;spacingRight=4;overflow=hidden;rotatable=0;points=[[0,0.5],[1,0.5]];portConstraint=eastwest;rounded=1;" parent="165" vertex="1">
                    <mxGeometry y="220" width="225" height="26" as="geometry"/>
                </mxCell>
                <mxCell id="175" value="# addFood(Food): void" style="text;html=1;strokeColor=none;fillColor=none;align=left;verticalAlign=middle;spacingLeft=4;spacingRight=4;overflow=hidden;rotatable=0;points=[[0,0.5],[1,0.5]];portConstraint=eastwest;rounded=1;" parent="165" vertex="1">
                    <mxGeometry y="246" width="225" height="26" as="geometry"/>
                </mxCell>
                <mxCell id="176" value="# removeFood(DisplayableObject): void" style="text;html=1;strokeColor=none;fillColor=none;align=left;verticalAlign=middle;spacingLeft=4;spacingRight=4;overflow=hidden;rotatable=0;points=[[0,0.5],[1,0.5]];portConstraint=eastwest;rounded=1;" parent="165" vertex="1">
                    <mxGeometry y="272" width="225" height="26" as="geometry"/>
                </mxCell>
                <mxCell id="177" value="# addSegment(SnakeView, Segment): void" style="text;html=1;strokeColor=none;fillColor=none;align=left;verticalAlign=middle;spacingLeft=4;spacingRight=4;overflow=hidden;rotatable=0;points=[[0,0.5],[1,0.5]];portConstraint=eastwest;rounded=1;" parent="165" vertex="1">
                    <mxGeometry y="298" width="225" height="26" as="geometry"/>
                </mxCell>
                <mxCell id="178" value="# removeSegment(SnakeView, DisplayableObject): void" style="text;html=1;strokeColor=none;fillColor=none;align=left;verticalAlign=middle;spacingLeft=4;spacingRight=4;overflow=hidden;rotatable=0;points=[[0,0.5],[1,0.5]];portConstraint=eastwest;rounded=1;" parent="165" vertex="1">
                    <mxGeometry y="324" width="225" height="26" as="geometry"/>
                </mxCell>
                <mxCell id="179" value="# addSnake(Snake): void" style="text;html=1;strokeColor=none;fillColor=none;align=left;verticalAlign=middle;spacingLeft=4;spacingRight=4;overflow=hidden;rotatable=0;points=[[0,0.5],[1,0.5]];portConstraint=eastwest;rounded=1;" parent="165" vertex="1">
                    <mxGeometry y="350" width="225" height="26" as="geometry"/>
                </mxCell>
                <mxCell id="180" value="# removeSnake(SnakeView): void" style="text;html=1;strokeColor=none;fillColor=none;align=left;verticalAlign=middle;spacingLeft=4;spacingRight=4;overflow=hidden;rotatable=0;points=[[0,0.5],[1,0.5]];portConstraint=eastwest;rounded=1;" parent="165" vertex="1">
                    <mxGeometry y="376" width="225" height="26" as="geometry"/>
                </mxCell>
                <mxCell id="181" value="# getWidthProperty(): DoubleProperty" style="text;html=1;strokeColor=none;fillColor=none;align=left;verticalAlign=middle;spacingLeft=4;spacingRight=4;overflow=hidden;rotatable=0;points=[[0,0.5],[1,0.5]];portConstraint=eastwest;rounded=1;" parent="165" vertex="1">
                    <mxGeometry y="402" width="225" height="26" as="geometry"/>
                </mxCell>
                <mxCell id="182" value="# getWidth(): double" style="text;html=1;strokeColor=none;fillColor=none;align=left;verticalAlign=middle;spacingLeft=4;spacingRight=4;overflow=hidden;rotatable=0;points=[[0,0.5],[1,0.5]];portConstraint=eastwest;rounded=1;" parent="165" vertex="1">
                    <mxGeometry y="428" width="225" height="26" as="geometry"/>
                </mxCell>
                <mxCell id="183" value="# setWidth(double): void" style="text;html=1;strokeColor=none;fillColor=none;align=left;verticalAlign=middle;spacingLeft=4;spacingRight=4;overflow=hidden;rotatable=0;points=[[0,0.5],[1,0.5]];portConstraint=eastwest;rounded=1;" parent="165" vertex="1">
                    <mxGeometry y="454" width="225" height="26" as="geometry"/>
                </mxCell>
                <mxCell id="184" value="# getHeightProperty(): DoubleProperty" style="text;html=1;strokeColor=none;fillColor=none;align=left;verticalAlign=middle;spacingLeft=4;spacingRight=4;overflow=hidden;rotatable=0;points=[[0,0.5],[1,0.5]];portConstraint=eastwest;rounded=1;" parent="165" vertex="1">
                    <mxGeometry y="480" width="225" height="26" as="geometry"/>
                </mxCell>
                <mxCell id="185" value="# getHeight(): double" style="text;html=1;strokeColor=none;fillColor=none;align=left;verticalAlign=middle;spacingLeft=4;spacingRight=4;overflow=hidden;rotatable=0;points=[[0,0.5],[1,0.5]];portConstraint=eastwest;rounded=1;" parent="165" vertex="1">
                    <mxGeometry y="506" width="225" height="26" as="geometry"/>
                </mxCell>
                <mxCell id="186" value="# setHeight(double): void" style="text;html=1;strokeColor=none;fillColor=none;align=left;verticalAlign=middle;spacingLeft=4;spacingRight=4;overflow=hidden;rotatable=0;points=[[0,0.5],[1,0.5]];portConstraint=eastwest;rounded=1;" parent="165" vertex="1">
                    <mxGeometry y="532" width="225" height="26" as="geometry"/>
                </mxCell>
                <mxCell id="187" value="# getRoot(): Pane" style="text;html=1;strokeColor=none;fillColor=none;align=left;verticalAlign=middle;spacingLeft=4;spacingRight=4;overflow=hidden;rotatable=0;points=[[0,0.5],[1,0.5]];portConstraint=eastwest;rounded=1;" parent="165" vertex="1">
                    <mxGeometry y="558" width="225" height="26" as="geometry"/>
                </mxCell>
                <mxCell id="188" value="# getFoodsToDisplay(): List&lt;DisplayableObject&gt;&amp;lt;DisplayableObject&amp;gt;" style="text;html=1;strokeColor=none;fillColor=none;align=left;verticalAlign=middle;spacingLeft=4;spacingRight=4;overflow=hidden;rotatable=0;points=[[0,0.5],[1,0.5]];portConstraint=eastwest;rounded=1;" parent="165" vertex="1">
                    <mxGeometry y="584" width="225" height="26" as="geometry"/>
                </mxCell>
                <mxCell id="189" value="# getSnakesToDisplay(): List&lt;SnakeView&gt;&amp;lt;SnakeView&amp;gt;" style="text;html=1;strokeColor=none;fillColor=none;align=left;verticalAlign=middle;spacingLeft=4;spacingRight=4;overflow=hidden;rotatable=0;points=[[0,0.5],[1,0.5]];portConstraint=eastwest;rounded=1;" parent="165" vertex="1">
                    <mxGeometry y="610" width="225" height="26" as="geometry"/>
                </mxCell>
                <mxCell id="190" value="# getOx(): Double" style="text;html=1;strokeColor=none;fillColor=none;align=left;verticalAlign=middle;spacingLeft=4;spacingRight=4;overflow=hidden;rotatable=0;points=[[0,0.5],[1,0.5]];portConstraint=eastwest;rounded=1;" parent="165" vertex="1">
                    <mxGeometry y="636" width="225" height="26" as="geometry"/>
                </mxCell>
                <mxCell id="191" value="# getOy(): Double" style="text;html=1;strokeColor=none;fillColor=none;align=left;verticalAlign=middle;spacingLeft=4;spacingRight=4;overflow=hidden;rotatable=0;points=[[0,0.5],[1,0.5]];portConstraint=eastwest;rounded=1;" parent="165" vertex="1">
                    <mxGeometry y="662" width="225" height="26" as="geometry"/>
                </mxCell>
                <mxCell id="246" value="Binding" style="edgeStyle=orthogonalEdgeStyle;html=1;elbow=vertical;entryX=0.5;entryY=0;entryDx=0;entryDy=0;fillColor=#d80073;strokeColor=#A50040;strokeWidth=4;exitX=0.5;exitY=0;exitDx=0;exitDy=0;" parent="1" source="192" target="13" edge="1">
                    <mxGeometry relative="1" as="geometry">
                        <mxPoint x="430" y="1049.7777777777778" as="targetPoint"/>
                        <mxPoint x="992" y="1111" as="sourcePoint"/>
                        <Array as="points">
                            <mxPoint x="985" y="1076"/>
                            <mxPoint x="417" y="1076"/>
                        </Array>
                    </mxGeometry>
                </mxCell>
                <mxCell id="192" value="Controller" style="swimlane;fontStyle=0;align=center;verticalAlign=top;childLayout=stackLayout;horizontal=1;startSize=30;horizontalStack=0;resizeParent=1;resizeParentMax=0;resizeLast=0;collapsible=0;marginBottom=0;html=1;rounded=1;" parent="1" vertex="1">
                    <mxGeometry x="872" y="1140" width="225" height="194" as="geometry"/>
                </mxCell>
                <mxCell id="193" value="- view : GameView" style="text;html=1;strokeColor=none;fillColor=none;align=left;verticalAlign=middle;spacingLeft=4;spacingRight=4;overflow=hidden;rotatable=0;points=[[0,0.5],[1,0.5]];portConstraint=eastwest;rounded=1;" parent="192" vertex="1">
                    <mxGeometry y="30" width="225" height="26" as="geometry"/>
                </mxCell>
                <mxCell id="194" value="- model : Arena" style="text;html=1;strokeColor=none;fillColor=none;align=left;verticalAlign=middle;spacingLeft=4;spacingRight=4;overflow=hidden;rotatable=0;points=[[0,0.5],[1,0.5]];portConstraint=eastwest;rounded=1;" parent="192" vertex="1">
                    <mxGeometry y="56" width="225" height="26" as="geometry"/>
                </mxCell>
                <mxCell id="195" value="- pause : boolean" style="text;html=1;strokeColor=none;fillColor=none;align=left;verticalAlign=middle;spacingLeft=4;spacingRight=4;overflow=hidden;rotatable=0;points=[[0,0.5],[1,0.5]];portConstraint=eastwest;rounded=1;" parent="192" vertex="1">
                    <mxGeometry y="82" width="225" height="26" as="geometry"/>
                </mxCell>
                <mxCell id="196" style="line;strokeWidth=1;fillColor=none;align=left;verticalAlign=middle;spacingTop=-1;spacingLeft=3;spacingRight=3;rotatable=0;labelPosition=right;points=[];portConstraint=eastwest;rounded=1;" parent="192" vertex="1">
                    <mxGeometry y="108" width="225" height="8" as="geometry"/>
                </mxCell>
                <mxCell id="197" value="# Controller(Pane, double, double, String)" style="text;html=1;strokeColor=none;fillColor=none;align=left;verticalAlign=middle;spacingLeft=4;spacingRight=4;overflow=hidden;rotatable=0;points=[[0,0.5],[1,0.5]];portConstraint=eastwest;rounded=1;" parent="192" vertex="1">
                    <mxGeometry y="116" width="225" height="26" as="geometry"/>
                </mxCell>
                <mxCell id="198" value="# startGame(): void" style="text;html=1;strokeColor=none;fillColor=none;align=left;verticalAlign=middle;spacingLeft=4;spacingRight=4;overflow=hidden;rotatable=0;points=[[0,0.5],[1,0.5]];portConstraint=eastwest;rounded=1;" parent="192" vertex="1">
                    <mxGeometry y="142" width="225" height="26" as="geometry"/>
                </mxCell>
                <mxCell id="199" value="# animate(): void" style="text;html=1;strokeColor=none;fillColor=none;align=left;verticalAlign=middle;spacingLeft=4;spacingRight=4;overflow=hidden;rotatable=0;points=[[0,0.5],[1,0.5]];portConstraint=eastwest;rounded=1;" parent="192" vertex="1">
                    <mxGeometry y="168" width="225" height="26" as="geometry"/>
                </mxCell>
                <mxCell id="200" value="Framegame" style="swimlane;fontStyle=0;align=center;verticalAlign=top;childLayout=stackLayout;horizontal=1;startSize=30;horizontalStack=0;resizeParent=1;resizeParentMax=0;resizeLast=0;collapsible=0;marginBottom=0;html=1;rounded=1;" parent="1" vertex="1">
                    <mxGeometry x="869" y="1436" width="225" height="194" as="geometry"/>
                </mxCell>
                <mxCell id="201" value="- backgroundMenu : String" style="text;html=1;strokeColor=none;fillColor=none;align=left;verticalAlign=middle;spacingLeft=4;spacingRight=4;overflow=hidden;rotatable=0;points=[[0,0.5],[1,0.5]];portConstraint=eastwest;rounded=1;" parent="200" vertex="1">
                    <mxGeometry y="30" width="225" height="26" as="geometry"/>
                </mxCell>
                <mxCell id="202" value="- backgroundGame : String" style="text;html=1;strokeColor=none;fillColor=none;align=left;verticalAlign=middle;spacingLeft=4;spacingRight=4;overflow=hidden;rotatable=0;points=[[0,0.5],[1,0.5]];portConstraint=eastwest;rounded=1;" parent="200" vertex="1">
                    <mxGeometry y="56" width="225" height="26" as="geometry"/>
                </mxCell>
                <mxCell id="203" value="- gameName : StringProperty" style="text;html=1;strokeColor=none;fillColor=none;align=left;verticalAlign=middle;spacingLeft=4;spacingRight=4;overflow=hidden;rotatable=0;points=[[0,0.5],[1,0.5]];portConstraint=eastwest;rounded=1;" parent="200" vertex="1">
                    <mxGeometry y="82" width="225" height="26" as="geometry"/>
                </mxCell>
                <mxCell id="204" value="- controlName : StringProperty" style="text;html=1;strokeColor=none;fillColor=none;align=left;verticalAlign=middle;spacingLeft=4;spacingRight=4;overflow=hidden;rotatable=0;points=[[0,0.5],[1,0.5]];portConstraint=eastwest;rounded=1;" parent="200" vertex="1">
                    <mxGeometry y="108" width="225" height="26" as="geometry"/>
                </mxCell>
                <mxCell id="205" style="line;strokeWidth=1;fillColor=none;align=left;verticalAlign=middle;spacingTop=-1;spacingLeft=3;spacingRight=3;rotatable=0;labelPosition=right;points=[];portConstraint=eastwest;rounded=1;" parent="200" vertex="1">
                    <mxGeometry y="134" width="225" height="8" as="geometry"/>
                </mxCell>
                <mxCell id="206" value="+ start(Stage): void" style="text;html=1;strokeColor=none;fillColor=none;align=left;verticalAlign=middle;spacingLeft=4;spacingRight=4;overflow=hidden;rotatable=0;points=[[0,0.5],[1,0.5]];portConstraint=eastwest;rounded=1;" parent="200" vertex="1">
                    <mxGeometry y="142" width="225" height="26" as="geometry"/>
                </mxCell>
                <mxCell id="207" value="+ startMenu(Stage): void" style="text;html=1;strokeColor=none;fillColor=none;align=left;verticalAlign=middle;spacingLeft=4;spacingRight=4;overflow=hidden;rotatable=0;points=[[0,0.5],[1,0.5]];portConstraint=eastwest;rounded=1;" parent="200" vertex="1">
                    <mxGeometry y="168" width="225" height="26" as="geometry"/>
                </mxCell>
                <mxCell id="208" value="Extends" style="endArrow=block;endSize=16;endFill=0;html=1;fillColor=#0050ef;strokeColor=#001DBC;strokeWidth=4;" parent="1" source="10" target="13" edge="1">
                    <mxGeometry width="160" relative="1" as="geometry"/>
                </mxCell>
                <mxCell id="209" value="Extends" style="endArrow=block;endSize=16;endFill=0;html=1;fillColor=#0050ef;strokeColor=#001DBC;strokeWidth=4;" parent="1" source="44" target="13" edge="1">
                    <mxGeometry width="160" relative="1" as="geometry"/>
                </mxCell>
                <mxCell id="210" value="Extends" style="endArrow=block;endSize=16;endFill=0;html=1;fillColor=#0050ef;strokeColor=#001DBC;strokeWidth=4;" parent="1" source="77" target="13" edge="1">
                    <mxGeometry width="160" relative="1" as="geometry"/>
                </mxCell>
                <mxCell id="211" value="Extends" style="endArrow=block;endSize=16;endFill=0;html=1;fillColor=#0050ef;strokeColor=#001DBC;strokeWidth=4;" parent="1" source="80" target="107" edge="1">
                    <mxGeometry width="160" relative="1" as="geometry"/>
                </mxCell>
                <mxCell id="212" value="Extends" style="endArrow=block;endSize=16;endFill=0;html=1;fillColor=#0050ef;strokeColor=#001DBC;strokeWidth=4;" parent="1" source="97" target="107" edge="1">
                    <mxGeometry width="160" relative="1" as="geometry"/>
                </mxCell>
                <mxCell id="213" value="Extends" style="endArrow=block;endSize=16;endFill=0;html=1;fillColor=#0050ef;strokeColor=#001DBC;strokeWidth=4;" parent="1" source="143" target="149" edge="1">
                    <mxGeometry width="160" relative="1" as="geometry"/>
                </mxCell>
                <mxCell id="214" value="Extends" style="endArrow=block;endSize=16;endFill=0;html=1;fillColor=#0050ef;strokeColor=#001DBC;strokeWidth=4;" parent="1" source="146" target="149" edge="1">
                    <mxGeometry width="160" relative="1" as="geometry"/>
                </mxCell>
                <mxCell id="247" value="Binding" style="edgeStyle=orthogonalEdgeStyle;html=1;elbow=vertical;entryX=0.5;entryY=0;entryDx=0;entryDy=0;fillColor=#d80073;strokeColor=#A50040;strokeWidth=4;exitX=0.5;exitY=0;exitDx=0;exitDy=0;" parent="1" source="192" target="165" edge="1">
                    <mxGeometry relative="1" as="geometry">
                        <mxPoint x="426.5" y="1150" as="targetPoint"/>
                        <mxPoint x="992" y="1110" as="sourcePoint"/>
                        <Array as="points">
                            <mxPoint x="995" y="1140"/>
                            <mxPoint x="995" y="1073"/>
                            <mxPoint x="1276" y="1073"/>
                        </Array>
                    </mxGeometry>
                </mxCell>
                <mxCell id="249" value="View" style="edgeStyle=none;html=1;strokeWidth=4;elbow=vertical;fillColor=#60a917;strokeColor=#2D7600;" parent="1" source="159" target="90" edge="1">
                    <mxGeometry relative="1" as="geometry">
                        <mxPoint x="609" y="501" as="sourcePoint"/>
                        <mxPoint as="offset"/>
                    </mxGeometry>
                </mxCell>
                <mxCell id="251" value="View" style="edgeStyle=none;html=1;strokeWidth=4;elbow=vertical;fillColor=#60a917;strokeColor=#2D7600;" parent="1" source="143" target="80" edge="1">
                    <mxGeometry relative="1" as="geometry">
                        <mxPoint x="741" y="496.00016853932584" as="sourcePoint"/>
                        <mxPoint x="872" y="501.5198314606739" as="targetPoint"/>
                        <mxPoint as="offset"/>
                    </mxGeometry>
                </mxCell>
                <mxCell id="252" value="View" style="edgeStyle=none;html=1;strokeWidth=4;elbow=vertical;fillColor=#1ba1e2;strokeColor=#006EAF;startArrow=none;" parent="1" source="146" target="97" edge="1">
                    <mxGeometry relative="1" as="geometry">
                        <mxPoint x="1203" y="415" as="sourcePoint"/>
                        <mxPoint x="850" y="176.5198314606739" as="targetPoint"/>
                        <mxPoint as="offset"/>
                    </mxGeometry>
                </mxCell>
                <object label="Launch" Launch="" id="253">
                    <mxCell style="edgeStyle=none;html=1;strokeWidth=4;" parent="1" source="200" target="192" edge="1">
                        <mxGeometry x="0.0072" relative="1" as="geometry">
                            <mxPoint x="872" y="1901" as="sourcePoint"/>
                            <mxPoint x="854.224824355972" y="1571" as="targetPoint"/>
                            <mxPoint as="offset"/>
                        </mxGeometry>
                    </mxCell>
                </object>
                <mxCell id="254" value="" style="edgeStyle=none;html=1;strokeWidth=4;elbow=vertical;fillColor=#0050ef;strokeColor=#001DBC;endArrow=none;" parent="1" source="146" target="149" edge="1">
                    <mxGeometry relative="1" as="geometry">
                        <mxPoint x="1394" y="97.82894736842104" as="sourcePoint"/>
                        <mxPoint x="821" y="163.17105263157896" as="targetPoint"/>
                        <mxPoint as="offset"/>
                    </mxGeometry>
                </mxCell>
                <mxCell id="149" value="DisplayableObject" style="swimlane;fontStyle=0;align=center;verticalAlign=top;childLayout=stackLayout;horizontal=1;startSize=30;horizontalStack=0;resizeParent=1;resizeParentMax=0;resizeLast=0;collapsible=0;marginBottom=0;html=1;rounded=1;" parent="1" vertex="1">
                    <mxGeometry x="1367" y="427" width="225" height="246" as="geometry"/>
                </mxCell>
                <mxCell id="150" value="- object : GameObject" style="text;html=1;strokeColor=none;fillColor=none;align=left;verticalAlign=middle;spacingLeft=4;spacingRight=4;overflow=hidden;rotatable=0;points=[[0,0.5],[1,0.5]];portConstraint=eastwest;rounded=1;" parent="149" vertex="1">
                    <mxGeometry y="30" width="225" height="26" as="geometry"/>
                </mxCell>
                <mxCell id="151" value="- graphics : Rectangle" style="text;html=1;strokeColor=none;fillColor=none;align=left;verticalAlign=middle;spacingLeft=4;spacingRight=4;overflow=hidden;rotatable=0;points=[[0,0.5],[1,0.5]];portConstraint=eastwest;rounded=1;" parent="149" vertex="1">
                    <mxGeometry y="56" width="225" height="26" as="geometry"/>
                </mxCell>
                <mxCell id="152" style="line;strokeWidth=1;fillColor=none;align=left;verticalAlign=middle;spacingTop=-1;spacingLeft=3;spacingRight=3;rotatable=0;labelPosition=right;points=[];portConstraint=eastwest;rounded=1;" parent="149" vertex="1">
                    <mxGeometry y="82" width="225" height="8" as="geometry"/>
                </mxCell>
                <mxCell id="153" value="# DisplayableObject(GameObject, String)" style="text;html=1;strokeColor=none;fillColor=none;align=left;verticalAlign=middle;spacingLeft=4;spacingRight=4;overflow=hidden;rotatable=0;points=[[0,0.5],[1,0.5]];portConstraint=eastwest;rounded=1;" parent="149" vertex="1">
                    <mxGeometry y="90" width="225" height="26" as="geometry"/>
                </mxCell>
                <mxCell id="154" value="# display(Pane): void" style="text;html=1;strokeColor=none;fillColor=none;align=left;verticalAlign=middle;spacingLeft=4;spacingRight=4;overflow=hidden;rotatable=0;points=[[0,0.5],[1,0.5]];portConstraint=eastwest;rounded=1;" parent="149" vertex="1">
                    <mxGeometry y="116" width="225" height="26" as="geometry"/>
                </mxCell>
                <mxCell id="155" value="+ getRotation(): double" style="text;html=1;strokeColor=none;fillColor=none;align=left;verticalAlign=middle;spacingLeft=4;spacingRight=4;overflow=hidden;rotatable=0;points=[[0,0.5],[1,0.5]];portConstraint=eastwest;rounded=1;" parent="149" vertex="1">
                    <mxGeometry y="142" width="225" height="26" as="geometry"/>
                </mxCell>
                <mxCell id="156" value="+ bind(): void" style="text;html=1;strokeColor=none;fillColor=none;align=left;verticalAlign=middle;spacingLeft=4;spacingRight=4;overflow=hidden;rotatable=0;points=[[0,0.5],[1,0.5]];portConstraint=eastwest;rounded=1;" parent="149" vertex="1">
                    <mxGeometry y="168" width="225" height="26" as="geometry"/>
                </mxCell>
                <mxCell id="157" value="# getGraphics(): Rectangle" style="text;html=1;strokeColor=none;fillColor=none;align=left;verticalAlign=middle;spacingLeft=4;spacingRight=4;overflow=hidden;rotatable=0;points=[[0,0.5],[1,0.5]];portConstraint=eastwest;rounded=1;" parent="149" vertex="1">
                    <mxGeometry y="194" width="225" height="26" as="geometry"/>
                </mxCell>
                <mxCell id="158" value="# getObject(): GameObject" style="text;html=1;strokeColor=none;fillColor=none;align=left;verticalAlign=middle;spacingLeft=4;spacingRight=4;overflow=hidden;rotatable=0;points=[[0,0.5],[1,0.5]];portConstraint=eastwest;rounded=1;" parent="149" vertex="1">
                    <mxGeometry y="220" width="225" height="26" as="geometry"/>
                </mxCell>
            </root>
        </mxGraphModel>
    </diagram>
</mxfile>